<svg width="250" height="250" viewBox="0 0 250 250" fill="none" xmlns="http://www.w3.org/2000/svg">
<path fill-rule="evenodd" clip-rule="evenodd" d="M61.9999 56.6328C57.5816 56.6328 53.9999 60.2253 53.9999 64.6567V171.976C53.9999 176.408 57.5816 180 61.9999 180H187C191.418 180 195 176.408 195 171.976V64.6567C195 60.2253 191.418 56.6328 187 56.6328H166L149.074 16.8731C147.816 13.9175 144.921 12 141.717 12H108.783C105.579 12 102.684 13.9175 101.425 16.8731L84.4999 56.6328H61.9999ZM140.866 29.3769C139.749 26.1581 136.716 24 133.308 24H116.773C113.326 24 110.267 26.208 109.181 29.4794L99.9999 57.1343H150.5L140.866 29.3769Z" fill="url(#paint0_linear_114_40)"/>
<path d="M53.9999 64.6567C53.9999 60.2253 57.5816 56.6328 61.9999 56.6328H84.4999L101.425 16.8731C102.681 13.9243 105.565 12.0088 108.761 12H124L117.757 24L116.773 24C113.326 24 110.267 26.208 109.181 29.4794L99.9999 57.1343L100.517 57.1343L53.9999 146.539V64.6567Z" fill="url(#paint1_linear_114_40)"/>
<path d="M101 180.015H61.9999C57.5816 180.015 53.9999 176.422 53.9999 171.991L53.9999 163.015C102.738 145.364 126.906 98.0074 138.866 57.1492H150.5L143.797 37.8355C145.632 29.4878 146.97 21.7458 147.943 15C148.398 15.5654 148.781 16.1984 149.074 16.888L166 56.6477H172.818C166.193 88.6214 147.472 153.091 101 180.015Z" fill="url(#paint2_linear_114_40)"/>
<path d="M33.3096 209.276C33.1959 208.13 32.7082 207.24 31.8465 206.605C30.9848 205.971 29.8153 205.653 28.338 205.653C27.3342 205.653 26.4867 205.795 25.7954 206.08C25.1041 206.354 24.5738 206.738 24.2045 207.23C23.8446 207.723 23.6647 208.281 23.6647 208.906C23.6457 209.427 23.7546 209.882 23.9914 210.27C24.2376 210.658 24.5738 210.994 24.9999 211.278C25.426 211.553 25.9185 211.795 26.4772 212.003C27.0359 212.202 27.6325 212.372 28.267 212.514L30.8806 213.139C32.1495 213.423 33.3143 213.802 34.3749 214.276C35.4355 214.749 36.3541 215.331 37.1306 216.023C37.9071 216.714 38.5084 217.528 38.9346 218.466C39.3702 219.403 39.5927 220.478 39.6022 221.69C39.5927 223.471 39.1382 225.014 38.2385 226.321C37.3484 227.618 36.0605 228.627 34.3749 229.347C32.6988 230.057 30.677 230.412 28.3096 230.412C25.9611 230.412 23.9156 230.052 22.1732 229.332C20.4403 228.613 19.0861 227.547 18.1107 226.136C17.1448 224.716 16.6382 222.959 16.5908 220.866H22.5425C22.6088 221.842 22.8882 222.656 23.3806 223.31C23.8825 223.954 24.5501 224.441 25.3834 224.773C26.2262 225.095 27.1779 225.256 28.2385 225.256C29.2802 225.256 30.1846 225.104 30.9516 224.801C31.7281 224.498 32.3295 224.077 32.7556 223.537C33.1817 222.997 33.3948 222.377 33.3948 221.676C33.3948 221.023 33.2007 220.473 32.8124 220.028C32.4336 219.583 31.8749 219.205 31.1363 218.892C30.4071 218.58 29.5122 218.295 28.4516 218.04L25.284 217.244C22.8314 216.648 20.8948 215.715 19.4743 214.446C18.0539 213.177 17.3484 211.468 17.3579 209.318C17.3484 207.557 17.8171 206.018 18.7641 204.702C19.7206 203.385 21.0321 202.358 22.6988 201.619C24.3654 200.881 26.2594 200.511 28.3806 200.511C30.5397 200.511 32.4242 200.881 34.034 201.619C35.6533 202.358 36.9128 203.385 37.8124 204.702C38.712 206.018 39.176 207.543 39.2045 209.276H33.3096Z" fill="#172554"/>
<path d="M55.6768 217.386V230H49.6256V200.909H55.5063V212.031H55.762C56.2544 210.743 57.0499 209.735 58.1483 209.006C59.2468 208.267 60.6247 207.898 62.2819 207.898C63.797 207.898 65.118 208.229 66.2449 208.892C67.3813 209.545 68.262 210.488 68.887 211.719C69.5215 212.94 69.834 214.403 69.8245 216.108V230H63.7733V217.188C63.7828 215.843 63.4419 214.796 62.7506 214.048C62.0688 213.3 61.1124 212.926 59.8813 212.926C59.0574 212.926 58.3283 213.101 57.6938 213.452C57.0688 213.802 56.5764 214.313 56.2165 214.986C55.8662 215.649 55.6862 216.449 55.6768 217.386Z" fill="#172554"/>
<path d="M90.4445 230.426C88.2381 230.426 86.3299 229.957 84.7201 229.02C83.1197 228.073 81.8839 226.757 81.0127 225.071C80.1415 223.376 79.7059 221.411 79.7059 219.176C79.7059 216.922 80.1415 214.953 81.0127 213.267C81.8839 211.572 83.1197 210.256 84.7201 209.318C86.3299 208.371 88.2381 207.898 90.4445 207.898C92.651 207.898 94.5544 208.371 96.1547 209.318C97.7646 210.256 99.0051 211.572 99.8763 213.267C100.748 214.953 101.183 216.922 101.183 219.176C101.183 221.411 100.748 223.376 99.8763 225.071C99.0051 226.757 97.7646 228.073 96.1547 229.02C94.5544 229.957 92.651 230.426 90.4445 230.426ZM90.4729 225.739C91.4767 225.739 92.3148 225.455 92.9871 224.886C93.6595 224.309 94.1661 223.523 94.507 222.528C94.8574 221.534 95.0326 220.402 95.0326 219.134C95.0326 217.865 94.8574 216.733 94.507 215.739C94.1661 214.744 93.6595 213.958 92.9871 213.381C92.3148 212.803 91.4767 212.514 90.4729 212.514C89.4597 212.514 88.6074 212.803 87.9161 213.381C87.2343 213.958 86.7182 214.744 86.3678 215.739C86.0269 216.733 85.8564 217.865 85.8564 219.134C85.8564 220.402 86.0269 221.534 86.3678 222.528C86.7182 223.523 87.2343 224.309 87.9161 224.886C88.6074 225.455 89.4597 225.739 90.4729 225.739Z" fill="#172554"/>
<path d="M111.118 238.182V208.182H117.084V211.847H117.354C117.619 211.259 118.002 210.663 118.504 210.057C119.016 209.441 119.678 208.93 120.493 208.523C121.317 208.106 122.339 207.898 123.561 207.898C125.152 207.898 126.62 208.314 127.964 209.148C129.309 209.972 130.384 211.217 131.189 212.884C131.994 214.541 132.396 216.619 132.396 219.119C132.396 221.553 132.003 223.608 131.217 225.284C130.441 226.951 129.38 228.215 128.035 229.077C126.7 229.929 125.204 230.355 123.547 230.355C122.373 230.355 121.373 230.161 120.55 229.773C119.735 229.384 119.068 228.897 118.547 228.31C118.026 227.713 117.628 227.112 117.354 226.506H117.169V238.182H111.118ZM117.041 219.091C117.041 220.388 117.221 221.52 117.581 222.486C117.941 223.452 118.462 224.205 119.143 224.744C119.825 225.275 120.654 225.54 121.629 225.54C122.614 225.54 123.447 225.27 124.129 224.73C124.811 224.181 125.327 223.423 125.677 222.457C126.037 221.482 126.217 220.36 126.217 219.091C126.217 217.831 126.042 216.723 125.692 215.767C125.341 214.811 124.825 214.063 124.143 213.523C123.462 212.983 122.623 212.713 121.629 212.713C120.644 212.713 119.811 212.973 119.129 213.494C118.457 214.015 117.941 214.754 117.581 215.71C117.221 216.667 117.041 217.794 117.041 219.091Z" fill="#172554"/>
<path d="M151.351 230.426C149.343 230.426 147.61 230.066 146.152 229.347C144.694 228.627 143.571 227.652 142.785 226.42C142.009 225.18 141.621 223.797 141.621 222.273C141.621 221.136 141.848 220.128 142.302 219.247C142.757 218.366 143.391 217.557 144.206 216.818C145.02 216.07 145.967 215.327 147.047 214.588L152.686 210.881C153.415 210.417 153.95 209.929 154.291 209.418C154.632 208.897 154.802 208.333 154.802 207.727C154.802 207.15 154.57 206.615 154.106 206.122C153.642 205.63 152.984 205.388 152.132 205.398C151.564 205.398 151.071 205.526 150.655 205.781C150.238 206.027 149.911 206.354 149.675 206.761C149.447 207.159 149.334 207.604 149.334 208.097C149.334 208.703 149.504 209.318 149.845 209.943C150.186 210.568 150.641 211.231 151.209 211.932C151.777 212.623 152.397 213.371 153.07 214.176L166.862 230H160.555L149.05 217.188C148.292 216.326 147.534 215.426 146.777 214.489C146.029 213.542 145.404 212.538 144.902 211.477C144.4 210.407 144.149 209.247 144.149 207.997C144.149 206.586 144.476 205.317 145.129 204.19C145.792 203.063 146.72 202.173 147.913 201.52C149.106 200.857 150.498 200.526 152.089 200.526C153.642 200.526 154.982 200.843 156.109 201.477C157.246 202.102 158.117 202.936 158.723 203.977C159.338 205.009 159.646 206.146 159.646 207.386C159.646 208.759 159.305 210.005 158.623 211.122C157.951 212.23 157.004 213.224 155.783 214.105L149.845 218.381C149.04 218.968 148.444 219.569 148.055 220.185C147.677 220.791 147.487 221.373 147.487 221.932C147.487 222.623 147.658 223.243 147.998 223.793C148.339 224.342 148.822 224.777 149.447 225.099C150.072 225.412 150.806 225.568 151.649 225.568C152.672 225.568 153.68 225.336 154.675 224.872C155.678 224.399 156.588 223.731 157.402 222.869C158.226 221.998 158.884 220.966 159.376 219.773C159.869 218.58 160.115 217.259 160.115 215.81H165.129C165.129 217.59 164.935 219.195 164.547 220.625C164.159 222.045 163.619 223.286 162.927 224.347C162.236 225.398 161.445 226.259 160.555 226.932C160.271 227.112 159.997 227.282 159.731 227.443C159.466 227.604 159.192 227.775 158.908 227.955C157.828 228.826 156.621 229.455 155.285 229.844C153.96 230.232 152.648 230.426 151.351 230.426Z" fill="#172554"/>
<path d="M194.787 210.312C194.588 209.621 194.309 209.01 193.949 208.48C193.589 207.94 193.149 207.486 192.628 207.116C192.116 206.738 191.529 206.449 190.866 206.25C190.213 206.051 189.489 205.952 188.693 205.952C187.206 205.952 185.9 206.321 184.773 207.06C183.655 207.798 182.784 208.873 182.159 210.284C181.534 211.686 181.221 213.4 181.221 215.426C181.221 217.453 181.529 219.176 182.145 220.597C182.76 222.017 183.632 223.101 184.758 223.849C185.885 224.588 187.216 224.957 188.75 224.957C190.142 224.957 191.33 224.711 192.315 224.219C193.31 223.717 194.067 223.011 194.588 222.102C195.118 221.193 195.383 220.118 195.383 218.878L196.633 219.062H189.133V214.432H201.307V218.097C201.307 220.653 200.767 222.85 199.687 224.688C198.608 226.515 197.121 227.926 195.227 228.92C193.333 229.905 191.165 230.398 188.721 230.398C185.994 230.398 183.598 229.796 181.534 228.594C179.47 227.382 177.86 225.663 176.704 223.438C175.559 221.203 174.986 218.551 174.986 215.483C174.986 213.125 175.327 211.023 176.008 209.176C176.7 207.32 177.666 205.748 178.906 204.46C180.147 203.172 181.591 202.192 183.239 201.52C184.886 200.848 186.671 200.511 188.594 200.511C190.241 200.511 191.775 200.753 193.196 201.236C194.616 201.709 195.876 202.382 196.974 203.253C198.082 204.124 198.987 205.161 199.687 206.364C200.388 207.557 200.838 208.873 201.037 210.312H194.787Z" fill="#172554"/>
<path d="M221.671 230.426C219.465 230.426 217.556 229.957 215.947 229.02C214.346 228.073 213.11 226.757 212.239 225.071C211.368 223.376 210.932 221.411 210.932 219.176C210.932 216.922 211.368 214.953 212.239 213.267C213.11 211.572 214.346 210.256 215.947 209.318C217.556 208.371 219.465 207.898 221.671 207.898C223.878 207.898 225.781 208.371 227.381 209.318C228.991 210.256 230.232 211.572 231.103 213.267C231.974 214.953 232.41 216.922 232.41 219.176C232.41 221.411 231.974 223.376 231.103 225.071C230.232 226.757 228.991 228.073 227.381 229.02C225.781 229.957 223.878 230.426 221.671 230.426ZM221.699 225.739C222.703 225.739 223.541 225.455 224.214 224.886C224.886 224.309 225.393 223.523 225.734 222.528C226.084 221.534 226.259 220.402 226.259 219.134C226.259 217.865 226.084 216.733 225.734 215.739C225.393 214.744 224.886 213.958 224.214 213.381C223.541 212.803 222.703 212.514 221.699 212.514C220.686 212.514 219.834 212.803 219.143 213.381C218.461 213.958 217.945 214.744 217.594 215.739C217.253 216.733 217.083 217.865 217.083 219.134C217.083 220.402 217.253 221.534 217.594 222.528C217.945 223.523 218.461 224.309 219.143 224.886C219.834 225.455 220.686 225.739 221.699 225.739Z" fill="#172554"/>
<defs>
<linearGradient id="paint0_linear_114_40" x1="16.5908" y1="12" x2="200.794" y2="261.522" gradientUnits="userSpaceOnUse">
<stop offset="0.235" stop-color="#F97316"/>
<stop offset="1" stop-color="#E03400"/>
</linearGradient>
<linearGradient id="paint1_linear_114_40" x1="176.913" y1="12" x2="120.543" y2="206.83" gradientUnits="userSpaceOnUse">
<stop stop-color="#F9BC16" stop-opacity="0.1"/>
<stop offset="1" stop-color="#F9BC16" stop-opacity="0.3"/>
</linearGradient>
<linearGradient id="paint2_linear_114_40" x1="107.524" y1="16.0386" x2="107.524" y2="238.182" gradientUnits="userSpaceOnUse">
<stop stop-color="#F9BC16" stop-opacity="0.1"/>
<stop offset="1" stop-color="#F9BC16" stop-opacity="0.3"/>
</linearGradient>
</defs>
</svg>
