<svg width="250" height="250" viewBox="0 0 250 250" fill="none" xmlns="http://www.w3.org/2000/svg">
<path fill-rule="evenodd" clip-rule="evenodd" d="M46.0426 75.0518C40.4962 75.0518 36 79.5633 36 85.1285V219.905C36 225.47 40.4962 229.981 46.0426 229.981H202.957C208.504 229.981 213 225.47 213 219.905V85.1285C213 79.5633 208.504 75.0518 202.957 75.0518H176.596L155.349 25.1199C153.769 21.4081 150.135 19 146.113 19H104.77C100.748 19 97.1136 21.4081 95.5342 25.1199L74.2872 75.0518H46.0426ZM145.045 40.8226C143.642 36.7803 139.835 34.0701 135.557 34.0701H114.801C110.474 34.0701 106.633 36.8429 105.27 40.9514L93.7447 75.6815H157.138L145.045 40.8226Z" fill="url(#paint0_linear_114_39)"/>
<path d="M36 85.1285C36 79.5633 40.4962 75.0518 46.0426 75.0518H74.2872L95.5342 25.1199C97.11 21.4167 100.731 19.0111 104.742 19H123.872L116.035 34.0701L114.801 34.0701C110.474 34.0701 106.633 36.8429 105.27 40.9514L93.7447 75.6815L94.3936 75.6815L36 187.96V85.1285Z" fill="url(#paint1_linear_114_39)"/>
<path d="M95 230H46.0426C40.4962 230 36 225.488 36 219.923L36 208.651C97.1817 186.484 127.521 127.012 142.534 75.7002H157.138L148.724 51.4453C151.028 40.9619 152.707 31.2391 153.929 22.7675C154.5 23.4776 154.98 24.2726 155.349 25.1386L176.596 75.0704H185.154C176.839 115.224 153.337 196.187 95 230Z" fill="url(#paint2_linear_114_39)"/>
<defs>
<linearGradient id="paint0_linear_114_39" x1="36" y1="19" x2="213.105" y2="229.912" gradientUnits="userSpaceOnUse">
<stop offset="0.235" stop-color="#F97316"/>
<stop offset="1" stop-color="#E03400"/>
</linearGradient>
<linearGradient id="paint1_linear_114_39" x1="167.485" y1="19" x2="108.997" y2="196.719" gradientUnits="userSpaceOnUse">
<stop stop-color="#F9BC16" stop-opacity="0.1"/>
<stop offset="1" stop-color="#F9BC16" stop-opacity="0.3"/>
</linearGradient>
<linearGradient id="paint2_linear_114_39" x1="110.577" y1="22.7675" x2="110.577" y2="230" gradientUnits="userSpaceOnUse">
<stop stop-color="#F9BC16" stop-opacity="0.1"/>
<stop offset="1" stop-color="#F9BC16" stop-opacity="0.3"/>
</linearGradient>
</defs>
</svg>
